<?xml version="1.0" encoding="UTF-8"?><svg id="Layer_1" xmlns="http://www.w3.org/2000/svg" viewBox="0 0 360 360"><defs><style>.cls-1{fill:#231f20;}.cls-1,.cls-2{stroke-width:0px;}.cls-2{fill:#bb4927;}</style></defs><path class="cls-2" d="m103.53,124.21c0-41.61,33.73-75.34,75.35-75.34,31.36,0,58.24,19.17,69.58,46.42h-21.25c-9.85-16.41-27.83-27.42-48.33-27.42-31.07,0-56.35,25.27-56.35,56.34,0,14.65,5.61,28.01,14.8,38.03l-8.51,18.28c-15.52-13.79-25.29-33.91-25.29-56.31Z"/><path class="cls-2" d="m227.21,153.14h21.25c-4.56,10.96-11.64,20.62-20.51,28.25-1.88,1.6-3.83,3.13-5.86,4.54-5,3.52-10.44,6.43-16.23,8.65-2.24.86-4.53,1.62-6.87,2.27-6.4,1.76-13.14,2.71-20.11,2.71-7.59,0-14.91-1.12-21.82-3.22-2.32-.69-4.59-1.5-6.81-2.42l-2.97,6.54-9.29,20.47h-20.05l13.57-29.15,3.08-6.61,8.24-17.69,3.15-6.78,32.98-70.82,32.07,71.42c-4.62,4.01-9.95,7.12-15.69,9.18l-16.89-38.69-17.36,38.24-2.98,6.57c2.23.88,4.54,1.63,6.9,2.23,4.44,1.13,9.09,1.73,13.87,1.73,4.26,0,8.41-.48,12.4-1.38,2.38-.53,4.71-1.22,6.96-2.06,5.8-2.12,11.14-5.17,15.87-8.97,1.98-1.59,3.84-3.3,5.58-5.14,2.86-3,5.38-6.31,7.52-9.87Z"/><path class="cls-2" d="m225.11,192.65l12.7,28.28h-20.45l-8.61-19.72c5.77-2.24,11.26-5.11,16.36-8.56Z"/><path class="cls-1" d="m95.1,263.29c-2.2,3.78-5.68,5.77-10.02,5.77-6.01,0-10.96-5.39-10.96-11.16,0-6.53,5.16-11.34,10.99-11.34,4.1,0,7.94,1.87,10.14,5.95h-3.81c-1.64-1.9-3.54-3.05-6.09-3.05-4.54,0-8.06,3.84-8.06,8.14,0,4.54,3.43,8.55,7.88,8.55,2.26,0,4.28-.88,6.03-2.87h3.9Z"/><path class="cls-1" d="m115.16,269.06c-6.01,0-11.1-5.16-11.1-11.01,0-6.65,5.1-11.48,11.19-11.48,6.44,0,11.37,5.07,11.37,11.1,0,6.56-5.07,11.4-11.45,11.4Zm8.29-11.19c0-4.48-3.4-8.41-7.97-8.41-5.86,0-8.26,5.04-8.26,8.26,0,4.36,3.16,8.44,8.11,8.44s8.11-4.34,8.11-8.29Z"/><path class="cls-1" d="m137.07,268.65v-21.68h3.16v18.78h7.53v2.9h-10.69Z"/><path class="cls-1" d="m157.1,268.65v-21.68h3.16v18.78h7.53v2.9h-10.69Z"/><path class="cls-1" d="m177.02,268.65v-21.68h3.16v21.68h-3.16Z"/><path class="cls-1" d="m199.63,252.6c0-1.96-1.26-3.13-3.05-3.13-1.52,0-2.9,1.38-2.9,2.96s1.03,2.4,3.13,3.08c4.69,1.49,6.42,3.25,6.42,7s-2.81,6.56-6.65,6.56-6.62-2.75-6.68-6.83h3.16c.03,2.34,1.41,3.93,3.52,3.93s3.49-1.52,3.49-3.66c0-1.58-.7-2.58-3.02-3.37-5.36-1.82-6.53-3.57-6.53-6.65,0-3.31,2.72-5.92,6.06-5.92,3.57,0,6.15,2.26,6.21,6.03h-3.16Z"/><path class="cls-1" d="m213.22,268.65v-21.68h3.16v21.68h-3.16Z"/><path class="cls-1" d="m237.8,269.06c-6.01,0-11.1-5.16-11.1-11.01,0-6.65,5.1-11.48,11.19-11.48,6.44,0,11.37,5.07,11.37,11.1,0,6.56-5.07,11.4-11.45,11.4Zm8.29-11.19c0-4.48-3.4-8.41-7.97-8.41-5.86,0-8.26,5.04-8.26,8.26,0,4.36,3.16,8.44,8.11,8.44s8.11-4.34,8.11-8.29Z"/><path class="cls-1" d="m273.53,268.65l-10.72-16.76h-.06v16.76h-3.16v-21.68h3.46l10.55,16.49h.06v-16.49h3.16v21.68h-3.28Z"/><path class="cls-1" d="m89.82,310.9l-2.4-6.39h-7.79l-2.4,6.39h-3.34l8.23-21.68h2.84l8.23,21.68h-3.37Zm-6.24-17.58h-.06l-2.78,8.29h5.6l-2.75-8.29Z"/><path class="cls-1" d="m124.71,305.54c-2.2,3.78-5.68,5.77-10.02,5.77-6.01,0-10.96-5.39-10.96-11.16,0-6.53,5.16-11.34,10.99-11.34,4.1,0,7.94,1.87,10.14,5.95h-3.81c-1.64-1.9-3.54-3.05-6.09-3.05-4.54,0-8.06,3.84-8.06,8.14,0,4.54,3.43,8.55,7.88,8.55,2.26,0,4.28-.88,6.03-2.87h3.9Z"/><path class="cls-1" d="m151.22,310.9l-2.4-6.39h-7.79l-2.4,6.39h-3.34l8.23-21.68h2.84l8.23,21.68h-3.37Zm-6.24-17.58h-.06l-2.78,8.29h5.6l-2.75-8.29Z"/><path class="cls-1" d="m167.38,310.9v-21.68h7.53c6.56,0,10.57,5.19,10.57,10.84,0,6.62-4.19,10.84-11.04,10.84h-7.06Zm6.94-2.9c5.01,0,8-2.93,8-7.88s-3.43-8-7.85-8h-3.93v15.88h3.78Z"/><path class="cls-1" d="m199.37,310.9v-21.68h11.69v2.9h-8.52v6.39h8.52v2.9h-8.52v6.59h8.52v2.9h-11.69Z"/><path class="cls-1" d="m245.27,310.9v-18.31h-.09l-7.29,18.31h-1.9l-7.32-18.31h-.06v18.31h-3.16v-21.68h4.98l6.5,16.61,6.53-16.61h4.98v21.68h-3.16Z"/><path class="cls-1" d="m268.26,310.9v-7.82l-6.74-13.86h3.55l4.78,10.17,4.75-10.17h3.51l-6.68,13.86v7.82h-3.16Z"/><rect class="cls-1" x="61.38" y="277.76" width="229.24" height="1.45" rx=".46" ry=".46"/></svg>